<svg height="512pt" viewBox="-49 0 512 512" width="512pt" xmlns="http://www.w3.org/2000/svg"><path d="m199.382812 71.757812c0 39.628907-32.128906 71.757813-71.757812 71.757813-39.632812 0-71.757812-32.128906-71.757812-71.757813 0-39.632812 32.125-71.757812 71.757812-71.757812 39.628906 0 71.757812 32.125 71.757812 71.757812zm0 0" fill="#ffde55"/><path d="m358.382812 71.757812c0 39.628907-32.125 71.757813-71.757812 71.757813-39.628906 0-71.757812-32.128906-71.757812-71.757813 0-39.632812 32.128906-71.757812 71.757812-71.757812 39.632812 0 71.757812 32.125 71.757812 71.757812zm0 0" fill="#ffde55"/><path d="m322.289062 189.359375c39.632813 0 71.757813-32.128906 71.757813-71.757813 0-39.628906-32.125-71.757812-71.757813-71.757812-17.292968 0-33.15625 6.121094-45.550781 16.3125-4.691406-35.089844-34.722656-62.15625-71.097656-62.15625-35.648437 0-65.210937 26-70.792969 60.066406-11.964844-8.933594-26.808594-14.222656-42.890625-14.222656-39.628906 0-71.757812 32.125-71.757812 71.757812 0 39.628907 32.128906 71.753907 71.757812 71.753907h230.332031zm0 0" fill="#ffeb99"/><path d="m345.425781 88.171875c-36.464843 0-66.597656 28.441406-68.695312 64.84375l-.457031 7.925781c2.277343-39.496094-29.132813-72.769531-68.695313-72.769531h-.90625c-39.558594 0-70.972656 33.273437-68.695313 72.765625l-.457031-7.921875c-2.097656-36.402344-32.230469-64.84375-68.695312-64.84375-42.691407 0-75.078125 38.472656-67.796875 80.539063l56.300781 325.347656c1.792969 10.367187 10.789063 17.941406 21.3125 17.941406h256.96875c10.523437 0 19.519531-7.574219 21.3125-17.941406l56.304687-325.347656c7.277344-42.066407-25.109374-80.539063-67.800781-80.539063zm0 0" fill="#f46262"/><path d="m129.441406 494.058594-56.304687-325.347656c-5.003907-28.929688 8.75-56.15625 31.710937-70.34375-10.5-6.464844-22.84375-10.195313-36.023437-10.195313-42.691407 0-75.078125 38.472656-67.796875 80.539063l56.300781 325.347656c1.792969 10.367187 10.789063 17.941406 21.3125 17.941406h72.113281c-10.523437 0-19.519531-7.574219-21.3125-17.941406zm0 0" fill="#d65b5b"/><path d="m209.632812 153.015625.457032 7.925781c-1.523438-26.449218 12.070312-50.089844 33.09375-62.835937-10.371094-6.285157-22.535156-9.933594-35.605469-9.933594h-.90625c-11.9375 0-23.121094 3.046875-32.871094 8.359375 20.246094 11.03125 34.417969 31.941406 35.832031 56.484375zm0 0" fill="#d65b5b"/><path d="m206.671875 88.171875h.90625c39.558594 0 70.972656 33.277344 68.695313 72.769531l-20.25 351.058594h-97.796876l-20.25-351.058594c-2.277343-39.492187 29.132813-72.769531 68.695313-72.769531zm0 0" fill="#bdebff"/><path d="m238.03125 95.265625c-9.167969-4.53125-19.496094-7.09375-30.453125-7.09375h-.90625c-39.558594 0-70.972656 33.277344-68.695313 72.769531l20.25 351.058594h61.8125l-20.25-351.058594c-1.648437-28.554687 14.320313-53.847656 38.242188-65.675781zm0 0" fill="#92d8ff"/><path d="m334.050781 310.386719c0 70.097656-56.828125 126.925781-126.925781 126.925781s-126.925781-56.828125-126.925781-126.925781c0-70.097657 56.828125-126.925781 126.925781-126.925781s126.925781 56.828124 126.925781 126.925781zm0 0" fill="#eaeaea"/><path d="m142.011719 310.386719c0-59.4375 40.859375-109.324219 96.019531-123.128907-9.894531-2.472656-20.246094-3.796874-30.90625-3.796874-70.097656 0-126.925781 56.828124-126.925781 126.925781 0 70.097656 56.828125 126.925781 126.925781 126.925781 10.660156 0 21.011719-1.324219 30.90625-3.796875-55.160156-13.800781-96.019531-63.691406-96.019531-123.128906zm0 0" fill="#d8d7da"/><g fill="#444346"><path d="m207.125 338.816406c-9.78125 0-18.886719-5.269531-23.765625-13.757812-2.066406-3.589844-.828125-8.175782 2.761719-10.242188 3.59375-2.0625 8.175781-.828125 10.242187 2.765625 2.210938 3.847657 6.332031 6.234375 10.761719 6.234375s8.550781-2.386718 10.761719-6.234375c2.0625-3.589843 6.648437-4.828125 10.242187-2.761719 3.589844 2.0625 4.828125 6.648438 2.761719 10.238282-4.878906 8.488281-13.984375 13.757812-23.765625 13.757812zm0 0"/><path d="m272.734375 308.65625c-4.140625 0-7.5-3.355469-7.5-7.5v-11.699219c0-4.140625 3.359375-7.5 7.5-7.5 4.144531 0 7.5 3.359375 7.5 7.5v11.699219c0 4.144531-3.355469 7.5-7.5 7.5zm0 0"/><path d="m141.515625 308.65625c-4.144531 0-7.5-3.355469-7.5-7.5v-11.699219c0-4.140625 3.355469-7.5 7.5-7.5 4.140625 0 7.5 3.359375 7.5 7.5v11.699219c0 4.144531-3.359375 7.5-7.5 7.5zm0 0"/></g><path d="m278.585938 330.769531h-11.699219c-4.140625 0-7.5-3.355469-7.5-7.5 0-4.140625 3.359375-7.5 7.5-7.5h11.699219c4.144531 0 7.5 3.359375 7.5 7.5 0 4.144531-3.355469 7.5-7.5 7.5zm0 0" fill="#f46262"/><path d="m147.363281 330.769531h-11.699219c-4.144531 0-7.5-3.355469-7.5-7.5 0-4.140625 3.355469-7.5 7.5-7.5h11.699219c4.140625 0 7.5 3.359375 7.5 7.5 0 4.144531-3.359375 7.5-7.5 7.5zm0 0" fill="#f46262"/></svg>